HIERARCHY
ROOT Hips
{
  OFFSET 279.157 85.6768 304.565
  CHANNELS 6 Xposition Yposition Zposition Zrotation Xrotation Yrotation
  JOINT LeftUpLeg
  {
    OFFSET 8.64259 1.95398 -2.38835
    CHANNELS 3 Zrotation Xrotation Yrotation
    JOINT LeftLeg
    {
      OFFSET 43.7702 0 0
      CHANNELS 3 Zrotation Xrotation Yrotation
      JOINT LeftFoot
      {
        OFFSET 40.6238 0 0
        CHANNELS 3 Zrotation Xrotation Yrotation
        JOINT LeftToeBase
        {
          OFFSET 12.7242 0 0
          CHANNELS 3 Zrotation Xrotation Yrotation
          End Site
          {
            OFFSET 0 0 0
          }
        }
      }
    }
  }
  JOINT RightUpLeg
  {
    OFFSET -8.2249 1.95398 -2.59336
    CHANNELS 3 Zrotation Xrotation Yrotation
    JOINT RightLeg
    {
      OFFSET 43.5653 0 0
      CHANNELS 3 Zrotation Xrotation Yrotation
      JOINT RightFoot
      {
        OFFSET 40.6238 0 0
        CHANNELS 3 Zrotation Xrotation Yrotation
        JOINT RightToeBase
        {
          OFFSET 12.7242 0 0
          CHANNELS 3 Zrotation Xrotation Yrotation
          End Site
          {
            OFFSET 0 0 0
          }
        }
      }
    }
  }
  JOINT Spine
  {
    OFFSET 0.165834 0.87714 6.61349
    CHANNELS 3 Zrotation Xrotation Yrotation
    JOINT Spine1
    {
      OFFSET 7.38963 1.71661e-005 0
      CHANNELS 3 Zrotation Xrotation Yrotation
      JOINT Spine2
      {
        OFFSET 11.9445 1.14441e-005 0
        CHANNELS 3 Zrotation Xrotation Yrotation
        JOINT Spine3
        {
          OFFSET 14.7254 4.19617e-005 0
          CHANNELS 3 Zrotation Xrotation Yrotation
          JOINT Spine4
          {
            OFFSET 10.9679 0 0
            CHANNELS 3 Zrotation Xrotation Yrotation
            JOINT RightShoulder
            {
              OFFSET 2.46616 -1.6653 3.69651
              CHANNELS 3 Zrotation Xrotation Yrotation
              JOINT RightArm
              {
                OFFSET 13.0012 0 0
                CHANNELS 3 Zrotation Xrotation Yrotation
                JOINT RightForeArm
                {
                  OFFSET 28.7848 1.52588e-005 0
                  CHANNELS 3 Zrotation Xrotation Yrotation
                  JOINT RightHand
                  {
                    OFFSET 26.5688 1.52588e-005 0
                    CHANNELS 3 Zrotation Xrotation Yrotation
                    End Site
                    {
                      OFFSET 0 0 0
                    }
                  }
                }
              }
            }
            JOINT LeftShoulder
            {
              OFFSET 2.38034 -1.29275 -3.7523
              CHANNELS 3 Zrotation Xrotation Yrotation
              JOINT LeftArm
              {
                OFFSET 16.3182 6.10351e-005 0
                CHANNELS 3 Zrotation Xrotation Yrotation
                JOINT LeftForeArm
                {
                  OFFSET 27.0901 0 0
                  CHANNELS 3 Zrotation Xrotation Yrotation
                  JOINT LeftHand
                  {
                    OFFSET 24.5451 1.52588e-005 0
                    CHANNELS 3 Zrotation Xrotation Yrotation
                    End Site
                    {
                      OFFSET 0 0 0
                    }
                  }
                }
              }
            }
            JOINT Neck
            {
              OFFSET 5.0226 -0.0266342 0
              CHANNELS 3 Zrotation Xrotation Yrotation
              JOINT Head
              {
                OFFSET 6.69364 2.86102e-005 0
                CHANNELS 3 Zrotation Xrotation Yrotation
                End Site
                {
                  OFFSET 0 0 0
                }
              }
            }
          }
        }
      }
    }
  }
}
MOTION
Frames:	10
Frame Time:	0.0416667
-272.105 87.278 -267.632 -104.394 30.3479 -81.2792 -171.723 13.7153 98.2451 -29.8171 -79.8545 45.401 121.713 -32.8117 -110.498 2.52711 -24.298 15.8786 179.961 25.0166 88.7776 -67.2533 -16.3491 -6.76025 78.2674 -9.57105 -3.44394 26.5303 0.296073 3.17563 -0.570441 8.05206 -90.1846 10.7688 -1.22102 -0.254171 -0.9016 -1.23103 -0.200182 -23.4404 -1.08819 -0.609429 -3.42774 -1.08818 -0.609431 93.0771 -25.4063 -102.057 49.0333 -6.08496 27.0137 -34.695 -21.6842 -66.9636 -33.3099 0.767997 -17.2198 -86.3326 -45.6792 83.5392 -9.68432 14.7515 -19.83 47.9239 -11.8169 -94.4775 -1.09593 -0.310616 -23.934 13.3038 2.98576 -1.85849 -9.03063 3.36131 0.411442 
-268.914 89.8054 -265.124 -105.387 29.9415 -79.934 -171.111 5.11423 99.8495 -67.1638 -44.3604 8.04191 124.858 -15.4862 -73.395 -10.8886 -25.5377 2.70229 -179.401 23.01 89.8013 -58.9379 -16.6321 -6.98742 71.3739 -5.99161 -3.46831 25.446 0.527445 3.84817 -1.41833 7.94676 -90.1965 10.9817 -2.91463 -0.113864 -0.685937 -2.91679 0.0146188 -23.2454 -2.74553 -0.985243 -3.23279 -2.74556 -0.985248 94.7692 -23.6207 -98.8885 54.6824 -10.7241 36.1527 -34.6429 -15.2839 -68.473 -28.4299 1.36193 -21.031 -86.2891 -41.3726 82.8477 -6.73755 12.2101 -22.0725 40.6448 -13.0789 -96.7396 2.67301 -0.88426 -22.2986 8.02828 6.66739 -1.46241 -6.59809 6.75947 2.02738 
-267.119 93.4708 -261.565 -108.793 31.8058 -76.4229 -170.405 -3.49995 96.7146 -66.7577 -4.90269 4.27836 103.194 18.3711 -25.1382 -7.03715 -18.6927 -3.57049 -179.298 16.1731 90.1686 -45.2853 -20.7577 -7.59549 62.9015 -1.47102 -1.96968 22.9797 1.15868 4.58088 -1.93932 8.17954 -90.4281 10.5135 -4.05946 -0.492243 -1.15114 -4.07719 -0.312821 -23.73 -3.72364 -1.69112 -3.71735 -3.72364 -1.69112 95.9925 -19.7577 -97.2071 57.1495 -12.3197 42.8359 -36.4994 -11.1744 -71.1269 -22.8002 1.51155 -25.7774 -86.588 -37.253 81.5451 -5.15453 9.52596 -21.4017 39.2957 -13.069 -97.5545 5.3373 -1.24617 -21.3494 4.99972 10.0632 -0.439848 -6.49708 9.81121 4.77499 
-263.742 96.6831 -257.716 -108.778 33.996 -75.1111 -171.547 -5.49238 93.5723 -61.369 15.231 3.70632 77.9204 13.8514 3.5757 12.5101 -8.33132 -1.5442 179.755 11.585 89.8169 -27.791 -28.0025 -6.61883 54.4472 2.92768 0.604991 16.1411 3.15894 4.97662 -2.07859 8.16737 -90.6509 10.5256 -4.43915 -0.898644 -1.13796 -4.4744 -0.702023 -23.7216 -3.96359 -2.19308 -3.70894 -3.96358 -2.19309 96.0479 -18.8849 -97.306 54.7273 -9.41878 46.5779 -35.7195 -9.16063 -72.3531 -22.6069 2.315 -30.1652 -86.9294 -33.5432 80.0805 -3.13268 10.5973 -22.4092 41.1161 -12.7435 -96.0626 4.62132 -1.04073 -19.8247 3.25228 11.4048 -1.4188 -7.69991 11.1465 7.08793 
-258.931 98.547 -254.262 -102.9 35.6653 -77.3362 -172.563 -0.072323 93.3867 -55.539 17.7809 3.23591 68.6615 7.34429 6.37806 17.6482 -5.4297 -1.77149 -178.737 13.8623 90.6516 -20.7713 -32.7435 -7.85923 57.0384 1.43585 0.778535 17.702 2.97864 3.70504 -2.01232 7.61354 -90.8519 11.6278 -4.40192 -1.24064 -0.0361497 -4.45226 -1.04534 -22.6144 -3.8254 -2.50774 -2.60178 -3.82541 -2.50775 95.3294 -19.5013 -98.8665 51.4196 -4.3343 46.3959 -32.814 -8.20635 -73.1518 -20.9644 2.65675 -33.3814 -87.1594 -31.0888 79.045 -1.29167 14.7244 -22.5121 43.6035 -12.9332 -94.4535 5.39633 -1.05157 -18.453 3.01973 11.2133 -6.76264 -9.87074 11.4613 10.9187 
-253.702 98.6958 -249.043 -102.2 41.3363 -79.0408 -172.559 2.99318 89.7054 -50.4813 11.069 0.732704 65.2033 3.98809 3.89244 19.7583 -5.06701 0.589126 -176.984 18.9339 89.0233 -30.5076 -31.8438 -9.48699 62.511 -2.09519 -1.25821 13.7417 4.18241 3.93871 -1.38905 7.55428 -90.6848 11.7528 -3.08417 -1.03949 0.0852049 -3.12693 -0.902643 -22.4696 -2.62914 -1.91882 -2.45692 -2.62913 -1.91882 94.3997 -22.1978 -100.188 47.1626 -2.46958 41.0022 -34.0987 -10.0391 -76.2238 -24.0277 3.18837 -33.2713 -87.8555 -33.7822 78.4408 1.23334 20.3785 -18.2114 44.1543 -14.3446 -93.9875 6.85604 -1.18809 -17.943 6.77485 10.7997 -9.8553 -11.304 11.5986 12.212 
-248.333 97.6124 -244.313 -102.19 43.9945 -78.7513 -172.538 7.19113 88.7557 -50.5882 9.30949 0.088327 67.1523 5.31109 3.46996 26.8241 -3.40519 9.26039 -177.035 22.5038 88.9067 -42.7627 -18.8601 -7.68887 66.4781 -4.17253 -2.07494 16.0022 3.11307 5.31998 -1.08059 7.66907 -90.6919 11.524 -2.47332 -1.1254 -0.145018 -2.52048 -1.0154 -22.6899 -2.02078 -1.81685 -2.67729 -2.02079 -1.81685 92.6891 -26.6208 -102.473 39.7175 -3.6209 32.6267 -40.1093 -8.71261 -82.7282 -26.3648 2.7841 -30.3343 -89.279 -41.2221 77.8501 3.59541 25.3247 -8.82744 41.4888 -16.2102 -94.6562 6.51618 -1.05133 -16.6183 11.77 10.3585 -11.0271 -13.1248 11.6923 11.5236 
-243.004 96.2311 -239.486 -104.254 46.0826 -76.7335 -171.219 9.42516 89.4934 -50.4418 8.86412 -0.618277 67.8574 6.61988 5.24727 40.4886 5.43855 6.16423 -177.729 24.1771 88.8775 -59.0301 -10.9968 -6.60388 69.2765 -5.50261 -2.41986 17.0927 2.62979 5.95714 -0.663103 7.89047 -90.6334 11.0846 -1.61362 -1.10349 -0.585815 -1.66061 -1.0314 -23.1222 -1.20742 -1.53742 -3.10956 -1.20743 -1.53742 89.4347 -29.3276 -108.132 30.585 -1.00526 24.395 -38.3141 -6.26526 -88.9603 -27.3643 2.64326 -27.7478 -88.9116 -45.0961 79.342 -0.596797 27.7036 -0.629033 43.5599 -14.5811 -91.7085 9.40026 -1.12002 -14.4979 13.4303 9.41986 -11.6916 -12.3897 11.2608 10.2388 
-238.347 95.0536 -235.104 -105.763 47.5817 -74.675 -169.879 12.6579 90.3385 -52.0498 9.3248 -1.0749 73.4354 10.7511 5.17096 30.4654 -0.703584 7.43823 -179.536 22.4248 88.5409 -71.5449 -6.36053 -5.40695 69.6878 -6.51503 -3.94477 16.7586 2.30456 7.71302 -0.173414 7.8458 -90.58 11.178 -0.614681 -1.09437 -0.493191 -0.662251 -1.06626 -23.025 -0.257409 -1.2285 -3.01229 -0.257396 -1.22849 91.7002 -31.4133 -102.912 23.7586 -5.39661 10.3183 -41.5828 -2.70864 -92.2696 -27.4067 1.92841 -24.7537 -87.2972 -45.8541 82.0463 -10.566 30.2701 11.8714 45.6088 -13.6992 -89.794 6.55671 -0.856429 -14.1555 13.2355 7.69422 -12.147 -11.5188 9.86141 8.92255 
-234.074 93.8899 -231.14 -103.671 47.9215 -77.5452 -169.799 18.5129 88.3266 -53.4402 5.85007 -1.88446 74.759 11.1201 3.95848 25.2477 -3.21932 4.81863 178.35 20.1616 85.3338 -80.1419 -3.67811 -4.94562 66.3338 -4.62903 -3.03832 16.4262 2.61789 6.81038 0.218796 7.69616 -90.4459 11.4816 0.22696 -0.911369 -0.189608 0.186633 -0.920484 -22.723 0.490355 -0.80104 -2.71033 0.490371 -0.801035 93.5227 -29.4868 -99.8838 17.3578 -1.63926 -1.20313 -43.8184 0.996136 -96.7852 -26.8598 1.29669 -22.6521 -85.5584 -45.2303 84.6964 -21.7417 26.0713 27.0244 49.016 -16.2685 -91.7456 3.90535 -0.873087 -18.5217 16.6204 5.31284 -10.4994 -12.9015 7.45682 7.32962 
